<?xml version="1.0" encoding="utf-8"?>
<?xml-stylesheet type="text/xsl" href="rss1.xsl"?>
<rss version="2.0" xmlns:atom="http://www.w3.org/2005/Atom" xmlns:content="http://purl.org/rss/1.0/modules/content/" xmlns:dc="http://purl.org/dc/elements/1.1/" xmlns:media="http://search.yahoo.com/mrss/">
<channel>
 <title>Getty</title>
 <link>http://www.gettyimg.com/</link>
 <atom:link href="http://www.gettyimg.com/" rel="self" type="application/rss+xml" />

 
                <item>
                <title><![CDATA[【HD Live Performances】WEB-RiP - Marco Mengoni - Die Giovanni Zarrella Show E07 (26-04-23) - ZDF HD IPTV 1080p]]></title>
                <link><![CDATA[https://sharemania.us/threads/marco-mengoni-die-giovanni-zarrella-show-e07-26-04-23-zdf-hd-iptv-1080p.219765/]]></link>
                <description><![CDATA[<article>
<blockquote class="messageText SelectQuoteContainer ugc baseHtml">
Marco Mengoni - "Due Vite" + Interview<br>
<img src="https://i.imgur.com/3qcBfUd.png" class="bbCodeImage LbImage" alt="[​IMG]" data-url="https://i.imgur.com/3qcBfUd.png" style=""><br>
<br>
<div class="bbCodeBlock bbCodeCode">
<div class="type">Code:</div>
<pre>General
Complete name                            : Marco Mengoni - Due Vite - Die Giovanni Zarrella Show E07 (26-04-23) - ZDF HD 1080p.mkv
Format                                   : Matroska
Format version                           : Version 4
File size                                : 452 MiB
Duration                                 : 8 min 24 s
Overall bit rate                         : 7 525 kb/s
Encoded date                             : UTC 2023-04-26 05:33:08
Writing application                      : mkvmerge v55.0.0 ('Waiting For Space') 64-bit
Writing library                          : libebml v1.4.2 + libmatroska v1.6.4
Video
ID                                       : 1
Format                                   : AVC
Format/Info                              : Advanced Video Codec
Format profile                           : Main@L4.2
Format settings                          : CABAC / 2 Ref Frames
Format settings, CABAC                   : Yes
Format settings, Reference frames        : 2 frames
Codec ID                                 : V_MPEG4/ISO/AVC
Duration                                 : 8 min 24 s
Bit rate                                 : 7 271 kb/s
Width                                    : 1 920 pixels
Height                                   : 1 080 pixels
Display aspect ratio                     : 16:9
Frame rate mode                          : Constant
Frame rate                               : 50.000 FPS
Color space                              : YUV
Chroma subsampling                       : 4:2:0
Bit depth                                : 8 bits
Scan type                                : Progressive
Bits/(Pixel*Frame)                       : 0.070
Stream size                              : 437 MiB (97%)
Language                                 : German
Default                                  : Yes
Forced                                   : No
Audio
ID                                       : 2
Format                                   : E-AC-3
Format/Info                              : Enhanced AC-3
Commercial name                          : Dolby Digital Plus
Codec ID                                 : A_EAC3
Duration                                 : 8 min 24 s
Bit rate mode                            : Constant
Bit rate                                 : 256 kb/s
Channel(s)                               : 6 channels
Channel layout                           : L R C LFE Ls Rs
Sampling rate                            : 48.0 kHz
Frame rate                               : 31.250 FPS (1536 SPF)
Compression mode                         : Lossy
Stream size                              : 15.4 MiB (3%)
Language                                 : German
Service kind                             : Complete Main
Default                                  : Yes
Forced                                   : No
Text
ID                                       : 3
Format                                   : UTF-8
Codec ID                                 : S_TEXT/UTF8
Codec ID/Info                            : UTF-8 Plain Text
Duration                                 : 8 min 23 s
Bit rate                                 : 71 b/s
Count of elements                        : 103
Stream size                              : 4.40 KiB (0%)
Language                                 : German
Default                                  : Yes
Forced                                   : No

</pre>
</div><br>
Giovanni Zarrella &amp; Marco Mengoni - "One"<br>
<br>
<img src="https://i.imgur.com/loLdvhw.png" class="bbCodeImage LbImage" alt="[​IMG]" data-url="https://i.imgur.com/loLdvhw.png" style=""><br>
<br>
<div class="bbCodeBlock bbCodeCode">
<div class="type">Code:</div>
<pre>General
Complete name                            : Giovanni Zarrella &amp; Marco Mengoni - One - Die Giovanni Zarrella Show E07 (26-04-23) - ZDF HD 1080p.mkv
Format                                   : Matroska
Format version                           : Version 4
File size                                : 300 MiB
Duration                                 : 5 min 27 s
Overall bit rate                         : 7 682 kb/s
Encoded date                             : UTC 2023-04-26 05:33:08
Writing application                      : mkvmerge v55.0.0 ('Waiting For Space') 64-bit
Writing library                          : libebml v1.4.2 + libmatroska v1.6.4
Video
ID                                       : 1
Format                                   : AVC
Format/Info                              : Advanced Video Codec
Format profile                           : Main@L4.2
Format settings                          : CABAC / 2 Ref Frames
Format settings, CABAC                   : Yes
Format settings, Reference frames        : 2 frames
Codec ID                                 : V_MPEG4/ISO/AVC
Duration                                 : 5 min 21 s
Bit rate                                 : 7 574 kb/s
Width                                    : 1 920 pixels
Height                                   : 1 080 pixels
Display aspect ratio                     : 16:9
Frame rate mode                          : Constant
Frame rate                               : 50.000 FPS
Color space                              : YUV
Chroma subsampling                       : 4:2:0
Bit depth                                : 8 bits
Scan type                                : Progressive
Bits/(Pixel*Frame)                       : 0.073
Stream size                              : 290 MiB (97%)
Language                                 : German
Default                                  : Yes
Forced                                   : No
Audio
ID                                       : 2
Format                                   : E-AC-3
Format/Info                              : Enhanced AC-3
Commercial name                          : Dolby Digital Plus
Codec ID                                 : A_EAC3
Duration                                 : 5 min 21 s
Bit rate mode                            : Constant
Bit rate                                 : 256 kb/s
Channel(s)                               : 6 channels
Channel layout                           : L R C LFE Ls Rs
Sampling rate                            : 48.0 kHz
Frame rate                               : 31.250 FPS (1536 SPF)
Compression mode                         : Lossy
Stream size                              : 9.81 MiB (3%)
Language                                 : German
Service kind                             : Complete Main
Default                                  : Yes
Forced                                   : No
Text
ID                                       : 3
Format                                   : UTF-8
Codec ID                                 : S_TEXT/UTF8
Codec ID/Info                            : UTF-8 Plain Text
Duration                                 : 5 min 27 s
Bit rate                                 : 44 b/s
Count of elements                        : 46
Stream size                              : 1.76 KiB (0%)
Language                                 : German
Default                                  : Yes
Forced                                   : No

</pre>
</div><br>
<br>
<div class="bbCodeBlock bbCodeVfcHH HiddenContent">
<div class="attribution type">Hidden Content:</div>
<blockquote>You must either reply or click 'Like' to see the hidden information contained here.</blockquote>
</div>
<div class="messageTextEndMarker">&nbsp;</div>
</blockquote>
</article>]]></description>
                <author><![CDATA[LLAVE1]]></author>
                </item>

                
                <item>
                <title><![CDATA[【HD Live Performances】WEB-RiP - Mr.Rain - SUPEREROI - VivaRai2 [13-02-23] - RAI2HD IPTV 1080p]]></title>
                <link><![CDATA[https://sharemania.us/threads/mr-rain-supereroi-vivarai2-13-02-23-rai2hd-iptv-1080p.219766/]]></link>
                <description><![CDATA[<article>
<blockquote class="messageText SelectQuoteContainer ugc baseHtml">
<img src="https://i.imgur.com/gchX8vM.png" class="bbCodeImage LbImage" alt="[​IMG]" data-url="https://i.imgur.com/gchX8vM.png" style=""><br>
<br>
<div class="bbCodeBlock bbCodeCode">
<div class="type">Code:</div>
<pre>General
Complete name                            : Mr.Rain - SUPEREROI - VivaRai2 [13-02-23] - RAI2 1080p.mkv
Format                                   : Matroska
Format version                           : Version 4
File size                                : 226 MiB
Duration                                 : 4 min 3 s
Overall bit rate                         : 7 801 kb/s
Encoded date                             : UTC 2023-04-26 07:39:09
Writing application                      : mkvmerge v55.0.0 ('Waiting For Space') 64-bit
Writing library                          : libebml v1.4.2 + libmatroska v1.6.4
Video
ID                                       : 1
Format                                   : AVC
Format/Info                              : Advanced Video Codec
Format profile                           : Main@L4.2
Format settings                          : CABAC / 2 Ref Frames
Format settings, CABAC                   : Yes
Format settings, Reference frames        : 2 frames
Codec ID                                 : V_MPEG4/ISO/AVC
Duration                                 : 4 min 3 s
Bit rate                                 : 7 542 kb/s
Width                                    : 1 920 pixels
Height                                   : 1 080 pixels
Display aspect ratio                     : 16:9
Frame rate mode                          : Constant
Frame rate                               : 50.000 FPS
Color space                              : YUV
Chroma subsampling                       : 4:2:0
Bit depth                                : 8 bits
Scan type                                : Progressive
Bits/(Pixel*Frame)                       : 0.073
Stream size                              : 219 MiB (97%)
Language                                 : Italian
Default                                  : Yes
Forced                                   : No
Audio
ID                                       : 2
Format                                   : E-AC-3
Format/Info                              : Enhanced AC-3
Commercial name                          : Dolby Digital Plus
Codec ID                                 : A_EAC3
Duration                                 : 4 min 3 s
Bit rate mode                            : Constant
Bit rate                                 : 256 kb/s
Channel(s)                               : 6 channels
Channel layout                           : L R C LFE Ls Rs
Sampling rate                            : 48.0 kHz
Frame rate                               : 31.250 FPS (1536 SPF)
Compression mode                         : Lossy
Stream size                              : 7.42 MiB (3%)
Language                                 : Italian
Service kind                             : Complete Main
Default                                  : Yes
Forced                                   : No
</pre>
</div>
<div class="bbCodeBlock bbCodeVfcHH HiddenContent">
<div class="attribution type">Hidden Content:</div>
<blockquote>You must either reply or click 'Like' to see the hidden information contained here.</blockquote>
</div>
<div class="messageTextEndMarker">&nbsp;</div>
</blockquote>
</article>]]></description>
                <author><![CDATA[LLAVE1]]></author>
                </item>

                </channel></rss>